<svg width="136" height="214" viewBox="0 0 136 214" fill="none" xmlns="http://www.w3.org/2000/svg">
<g filter="url(#filter0_d_11_63)">
<path d="M124.499 205.936C125.569 206.213 126.66 205.57 126.936 204.501L131.442 187.074C131.719 186.004 131.076 184.913 130.007 184.637C128.937 184.36 127.846 185.003 127.57 186.072L123.564 201.563L108.074 197.558C107.004 197.281 105.913 197.924 105.637 198.993C105.36 200.063 106.003 201.154 107.072 201.43L124.499 205.936ZM4.27679 3.01516L6.75596 7.22349L10.2024 5.19317L7.72321 0.984841L4.27679 3.01516ZM11.7143 15.6402L16.6726 24.0568L20.119 22.0265L15.1607 13.6098L11.7143 15.6402ZM21.631 32.4735L26.5893 40.8902L30.0357 38.8598L25.0774 30.4432L21.631 32.4735ZM31.5476 49.3068L36.506 57.7235L39.9524 55.6932L34.994 47.2765L31.5476 49.3068ZM41.4643 66.1402L46.4226 74.5568L49.869 72.5265L44.9107 64.1098L41.4643 66.1402ZM51.381 82.9735L56.3393 91.3902L59.7857 89.3598L54.8274 80.9432L51.381 82.9735ZM61.2976 99.8068L66.2559 108.223L69.7024 106.193L64.744 97.7765L61.2976 99.8068ZM71.2143 116.64L76.1726 125.057L79.619 123.026L74.6607 114.61L71.2143 116.64ZM81.1309 133.473L86.0893 141.89L89.5357 139.86L84.5774 131.443L81.1309 133.473ZM91.0476 150.307L96.0059 158.723L99.4524 156.693L94.494 148.276L91.0476 150.307ZM100.964 167.14L105.923 175.557L109.369 173.526L104.411 165.11L100.964 167.14ZM110.881 183.973L115.839 192.39L119.286 190.36L114.327 181.943L110.881 183.973ZM120.798 200.807L123.277 205.015L126.723 202.985L124.244 198.776L120.798 200.807Z" fill="#00E472"/>
</g>
<defs>
<filter id="filter0_d_11_63" x="0.276791" y="0.984863" width="135.23" height="213.016" filterUnits="userSpaceOnUse" color-interpolation-filters="sRGB">
<feFlood flood-opacity="0" result="BackgroundImageFix"/>
<feColorMatrix in="SourceAlpha" type="matrix" values="0 0 0 0 0 0 0 0 0 0 0 0 0 0 0 0 0 0 127 0" result="hardAlpha"/>
<feOffset dy="4"/>
<feGaussianBlur stdDeviation="2"/>
<feComposite in2="hardAlpha" operator="out"/>
<feColorMatrix type="matrix" values="0 0 0 0 0 0 0 0 0 0 0 0 0 0 0 0 0 0 0.25 0"/>
<feBlend mode="normal" in2="BackgroundImageFix" result="effect1_dropShadow_11_63"/>
<feBlend mode="normal" in="SourceGraphic" in2="effect1_dropShadow_11_63" result="shape"/>
</filter>
</defs>
</svg>
