<svg width="136" height="214" viewBox="0 0 136 214" fill="none" xmlns="http://www.w3.org/2000/svg">
<g filter="url(#filter0_d_11_52)">
<path d="M11.5007 205.936C10.4313 206.213 9.34019 205.57 9.06368 204.501L4.55767 187.074C4.28116 186.004 4.92392 184.913 5.99332 184.637C7.06272 184.36 8.1538 185.003 8.43031 186.072L12.4357 201.563L27.9262 197.558C28.9956 197.281 30.0867 197.924 30.3632 198.993C30.6397 200.063 29.9969 201.154 28.9275 201.43L11.5007 205.936ZM131.723 3.01516L129.244 7.22349L125.798 5.19317L128.277 0.984841L131.723 3.01516ZM124.286 15.6402L119.327 24.0568L115.881 22.0265L120.839 13.6098L124.286 15.6402ZM114.369 32.4735L109.411 40.8902L105.964 38.8598L110.923 30.4432L114.369 32.4735ZM104.452 49.3068L99.494 57.7235L96.0476 55.6932L101.006 47.2765L104.452 49.3068ZM94.5357 66.1402L89.5774 74.5568L86.131 72.5265L91.0893 64.1098L94.5357 66.1402ZM84.619 82.9735L79.6607 91.3902L76.2143 89.3598L81.1726 80.9432L84.619 82.9735ZM74.7024 99.8068L69.7441 108.223L66.2976 106.193L71.256 97.7765L74.7024 99.8068ZM64.7857 116.64L59.8274 125.057L56.381 123.026L61.3393 114.61L64.7857 116.64ZM54.8691 133.473L49.9107 141.89L46.4643 139.86L51.4226 131.443L54.8691 133.473ZM44.9524 150.307L39.9941 158.723L36.5476 156.693L41.506 148.276L44.9524 150.307ZM35.0357 167.14L30.0774 175.557L26.631 173.526L31.5893 165.11L35.0357 167.14ZM25.1191 183.973L20.1607 192.39L16.7143 190.36L21.6727 181.943L25.1191 183.973ZM15.2024 200.807L12.7232 205.015L9.27679 202.985L11.756 198.776L15.2024 200.807Z" fill="#00E472"/>
</g>
<defs>
<filter id="filter0_d_11_52" x="0.493504" y="0.984833" width="135.23" height="213.016" filterUnits="userSpaceOnUse" color-interpolation-filters="sRGB">
<feFlood flood-opacity="0" result="BackgroundImageFix"/>
<feColorMatrix in="SourceAlpha" type="matrix" values="0 0 0 0 0 0 0 0 0 0 0 0 0 0 0 0 0 0 127 0" result="hardAlpha"/>
<feOffset dy="4"/>
<feGaussianBlur stdDeviation="2"/>
<feComposite in2="hardAlpha" operator="out"/>
<feColorMatrix type="matrix" values="0 0 0 0 0 0 0 0 0 0 0 0 0 0 0 0 0 0 0.25 0"/>
<feBlend mode="normal" in2="BackgroundImageFix" result="effect1_dropShadow_11_52"/>
<feBlend mode="normal" in="SourceGraphic" in2="effect1_dropShadow_11_52" result="shape"/>
</filter>
</defs>
</svg>
